# xmcd
#
# Track frame offsets:
#	182
#	17572
#	39107
#	62160
#	81477
#	97197
#	119352
#	140007
#	160435
#	176922
#
# Disc length: 2592 seconds
# Revision: 2
# Processed by: cddbd v1.5.2PL0 Copyright (c) Steve Scherf et al.
# Submitted via: dBpowerAMP V12.0
#
DISCID=8b0a1e0a
DTITLE=Various Artist - Sedução
DYEAR=1988
DGENRE=MPB
TTITLE0=Simone - Separação
TTITLE1=Simone - Codinome Beija-Flor
TTITLE2=Simone e Plácido Domingo - Apaixonou (Till I Loved You)
TTITLE3=Simone - Olhos Negros
TTITLE4=Simone - Kalú
TTITLE5=Simone - O Tempo Não Para
TTITLE6=Simone - Amei Demais
TTITLE7=Simone - Carta Marcada
TTITLE8=Simone - Falou Amizade
TTITLE9=Simone - Disputa De Poder
EXTD=
EXTT0=
EXTT1=
EXTT2=
EXTT3=
EXTT4=
EXTT5=
EXTT6=
EXTT7=
EXTT8=
EXTT9=
PLAYORDER=
